<?xml version="1.0" encoding="UTF-8"?>
<svg version="1.1" xmlns="http://www.w3.org/2000/svg" width="75" height="75">
<path d="M0 0 C24.75 0 49.5 0 75 0 C75 24.75 75 49.5 75 75 C50.25 75 25.5 75 0 75 C0 50.25 0 25.5 0 0 Z " fill="#00423A" transform="translate(0,0)"/>
<path d="M0 0 C2.0873128 3.25620797 1.8540423 5.64745016 1.5625 9.4375 C-0.4175 9.4375 -2.3975 9.4375 -4.4375 9.4375 C-4.9325 8.4475 -4.9325 8.4475 -5.4375 7.4375 C-6.24904541 7.49808594 -7.06059082 7.55867188 -7.89672852 7.62109375 C-11.59762766 7.89588029 -15.29880524 8.16672549 -19 8.4375 C-20.27681641 8.53289063 -21.55363281 8.62828125 -22.86914062 8.7265625 C-24.10986328 8.81679688 -25.35058594 8.90703125 -26.62890625 9 C-27.76529541 9.08378906 -28.90168457 9.16757812 -30.07250977 9.25390625 C-33.53438882 9.44278625 -36.97118718 9.4683288 -40.4375 9.4375 C-40.4375 10.0975 -40.4375 10.7575 -40.4375 11.4375 C-39.88039841 11.43083817 -39.32329681 11.42417633 -38.74931335 11.41731262 C-32.9583411 11.35101434 -27.16747639 11.3057225 -21.3762207 11.27270508 C-19.21406679 11.25760556 -17.05194357 11.23712429 -14.88989258 11.21118164 C-11.784591 11.17484983 -8.67969386 11.15778538 -5.57421875 11.14453125 C-4.60538254 11.12904739 -3.63654633 11.11356354 -2.63835144 11.09761047 C-1.28729057 11.09727058 -1.28729057 11.09727058 0.09106445 11.09692383 C0.88382278 11.09026199 1.67658112 11.08360016 2.49336243 11.07673645 C5.12220354 11.53508686 5.99281917 12.3054803 7.5625 14.4375 C7.87280476 17.05943456 8.00680571 19.43959492 7.99609375 22.0625 C8.0013356 22.80580566 8.00657745 23.54911133 8.01197815 24.31494141 C8.01839608 25.88507845 8.01706424 27.45526358 8.00854492 29.02539062 C8.00002921 31.42925436 8.02880361 33.8307458 8.06054688 36.234375 C8.06215886 37.76041595 8.0615814 39.28646112 8.05859375 40.8125 C8.07544472 41.89072021 8.07544472 41.89072021 8.09263611 42.99072266 C8.06420898 45.0234375 8.06420898 45.0234375 7.5625 48.4375 C4.80022864 51.10555619 2.8369369 51.81404539 -0.95898438 51.82568359 C-2.2905658 51.83986832 -2.2905658 51.83986832 -3.64904785 51.8543396 C-4.60017456 51.84826691 -5.55130127 51.84219421 -6.53125 51.8359375 C-7.51492554 51.83880768 -8.49860107 51.84167786 -9.51208496 51.84463501 C-11.58993099 51.8466747 -13.66779627 51.84115151 -15.74560547 51.82861328 C-18.92589253 51.8125586 -22.10490871 51.82846553 -25.28515625 51.84765625 C-27.3046903 51.8456738 -29.32422357 51.84183009 -31.34375 51.8359375 C-32.77044006 51.84504654 -32.77044006 51.84504654 -34.22595215 51.8543396 C-35.1136731 51.84488312 -36.00139404 51.83542664 -36.91601562 51.82568359 C-37.69448853 51.82329681 -38.47296143 51.82091003 -39.27502441 51.81845093 C-42.06580152 51.32681572 -43.42816725 50.42217868 -45.4375 48.4375 C-45.94543457 46.5471344 -45.94543457 46.5471344 -45.95507812 44.39672852 C-45.96768677 43.58901505 -45.98029541 42.78130157 -45.99328613 41.94911194 C-45.98518921 41.08031906 -45.97709229 40.21152618 -45.96875 39.31640625 C-45.9725769 38.42009995 -45.97640381 37.52379364 -45.98034668 36.60032654 C-45.98306848 34.70481239 -45.97568855 32.80926086 -45.95898438 30.91381836 C-45.93760291 28.01395706 -45.95876332 25.11658033 -45.984375 22.21679688 C-45.98173128 20.37499453 -45.97660538 18.53319374 -45.96875 16.69140625 C-45.97684692 15.8246376 -45.98494385 14.95786896 -45.99328613 14.06483459 C-45.93477045 10.30167341 -45.88929793 8.1092634 -43.75512695 4.93603516 C-41.03460543 3.17699575 -39.02768338 2.66466905 -35.82421875 2.20703125 C-34.74076172 2.04396484 -33.65730469 1.88089844 -32.54101562 1.71289062 C-31.41373047 1.56013672 -30.28644531 1.40738281 -29.125 1.25 C-28.00931641 1.08564453 -26.89363281 0.92128906 -25.74414062 0.75195312 C-22.64391458 0.2980374 -19.54140724 -0.13462307 -16.4375 -0.5625 C-15.08320545 -0.75953967 -13.72901133 -0.95727342 -12.375 -1.15625 C-3.67971211 -2.35878981 -3.67971211 -2.35878981 0 0 Z " fill="#00C5AC" transform="translate(56.4375,12.5625)"/>
<path d="M0 0 C3.03058422 1.2433166 4.54587288 2.3080691 6.4375 5 C6.37248241 8.18586196 5.95664046 10.18030454 4.25 12.875 C1.49405076 14.58558918 -0.38875484 14.45339217 -3.5625 14 C-6.65134321 11.88658096 -7.43358765 10.68753254 -8.125 7 C-7.5625 4 -7.5625 4 -5.375 1.5625 C-2.5625 0 -2.5625 0 0 0 Z " fill="#F3FBF9" transform="translate(52.5625,36)"/>
<path d="M0 0 C0.33 0 0.66 0 1 0 C1 2.64 1 5.28 1 8 C-13.19 8 -27.38 8 -42 8 C-42 7.67 -42 7.34 -42 7 C-30.0073032 5.88087711 -18.02042828 4.7794817 -6 4 C-6 4.99 -6 5.98 -6 7 C-4.02 7 -2.04 7 0 7 C0 4.69 0 2.38 0 0 Z " fill="#00352F" transform="translate(58,15)"/>
</svg>
